<svg width="101" height="117" viewBox="0 0 101 117" fill="none" xmlns="http://www.w3.org/2000/svg">
<path d="M27.3415 39.769C21.9683 41.7198 19.4741 42.6684 15.0779 45.1065C20.6139 44.6189 30.7089 42.8399 32.6628 42.4497C35.1051 41.962 44.386 38.7663 47.3168 36.3277C50.2476 33.8892 54.1135 29.148 68.8094 22.1843C97.6291 8.52826 85.4621 -9.48566 64.9465 5.90367C55.9555 12.648 50.3145 18.1722 44.6693 25.7814C34.8999 38.9495 32.7146 37.8182 27.3415 39.769Z" fill="#D0DEDD"/>
<path d="M11.1693 47.5434C5.30774 51.4453 -8.36992 62.1743 8.72693 70.4656C15.4027 72.904 23.8694 76.3176 38.035 72.9037C48.0965 70.4789 52.6891 64.1254 53.1775 58.2726C53.7881 50.957 45.927 49.1919 40.0654 46.2656C38.9299 45.6988 57.2365 41.4959 74.1817 36.327C87.3686 32.3045 102.092 21.6073 94.6973 13.4039C90.3011 8.52662 78.0894 15.3546 53.666 35.3506C47.8044 39.7399 41.4543 37.7893 31.1966 39.2527C25.7902 40.0239 19.5479 41.9661 11.1693 47.5434Z" fill="#D0DEDD"/>
<ellipse cx="32.6627" cy="55.3483" rx="8.30396" ry="8.29098" fill="white" fill-opacity="0.51"/>
<path d="M37.0582 48.0327C40.9659 46.0818 48.2933 44.131 48.2933 44.131C54.8517 42.451 56.2827 42.451 74.1818 36.3283C87.2265 31.8662 105.716 21.6865 99.0932 12.4303C94.2085 5.60301 74.6705 11.9431 50.2472 31.9391C48.1946 33.476 43.8971 37.3039 40.9659 40.7169C36.8203 45.5441 37.0582 48.0327 37.0582 48.0327Z" fill="#ECECEC"/>
<path d="M34.1267 88.5114C22.8919 92.9008 17.5187 99.2409 14.5879 103.143C52.2 99.2409 77.439 117.262 85.592 97.9286C93.4075 79.3958 76.1349 53.8844 59.527 46.0811C63.9232 51.4458 71.2502 67.5401 62.9463 75.3434C54.6423 83.1467 44.9391 84.2871 34.1267 88.5114Z" fill="#27605C"/>
<path d="M14.5883 103.143C14.3885 103.425 14.3217 103.631 14.3217 103.631C14.3217 103.631 -18.0069 109.642 23.285 113.021C38.2643 114.247 55.964 114.351 67.8953 111.549C73.8772 110.144 75.4537 110.445 81.9974 104.187C88.5412 97.9293 85.5918 86.1501 81.9974 81.1958C73.6935 98.2655 58.551 107.532 31.6852 99.7286C20.4286 96.4591 14.7881 102.861 14.5883 103.143Z" fill="#87B5B8"/>
<path d="M43.1942 110.812C31.8062 108.033 24.7601 103.819 15.5433 103.45C6.3265 103.082 -18.0071 109.642 23.2848 113.021C35.4531 114.017 48.3462 114.409 59.0473 113.021C54.0897 113.16 48.7726 112.174 43.1942 110.812Z" fill="#D0DEDD"/>
<path d="M43.8973 46.0821C39.9239 45.7772 37.71 46.8948 37.0587 48.0327C43.4007 47.526 47.3858 50.5188 48.2935 54.3726C49.1336 57.9395 47.2221 62.2702 44.8742 64.6144C41.2026 68.2803 37.0587 70.4669 28.7548 71.4423C22.3924 72.1896 16.0546 72.4177 8.7276 70.4671C15.4033 72.9055 23.8701 76.3192 38.0357 72.9053C46.1291 70.9548 53.5446 65.59 54.1551 58.2745C54.7657 50.9589 49.7589 46.5319 43.8973 46.0821Z" fill="#88B5B8"/>
<path d="M36.0805 76.3207C17.1081 81.5826 15.7277 96.3161 14.5879 103.144C28.3611 85.0498 45.3614 93.8804 60.9924 82.6609C67.1017 78.2758 70.5479 72.9021 70.2733 64.1274C69.7848 48.5214 57.0847 43.6443 49.7576 43.6443C54.0416 44.1321 60.0155 46.5706 60.9924 53.8861C62.4782 65.0124 53.6654 71.4437 36.0805 76.3207Z" fill="#D0DEDD"/>
<path d="M76.8501 21.2097C71.2514 23.16 54.155 32.9141 46.828 40.2298C53.6666 37.791 59.4691 36.2347 64.4129 34.377C68.4945 32.8433 76.7107 30.0935 80.5323 27.5496C86.3939 23.6478 82.65 19.1892 76.8501 21.2097Z" fill="#65A6AA"/>
<ellipse cx="32.6628" cy="53.3965" rx="5.37315" ry="5.36476" fill="#FFAA04"/>
<ellipse cx="11.1597" cy="47.4952" rx="4.78499" ry="4.77752" fill="#E8EFEE"/>
<ellipse cx="11.1188" cy="46.7628" rx="2.58074" ry="2.57669" fill="#27605C"/>
<ellipse cx="32.6626" cy="52.422" rx="3.41928" ry="3.41394" fill="#27605C"/>
<ellipse cx="80.0615" cy="107.499" rx="8.84822" ry="8.8344" fill="#ECECEC"/>
<path d="M2.15659 60.8449C0.989159 63.0815 7.46261 69.267 8.39619 69.3602C7.927 65.1441 16.42 64.7228 13.8279 62.0123C10.8405 58.8884 3.32401 58.6083 2.15659 60.8449Z" fill="#367874"/>
<ellipse cx="81.7757" cy="78.2914" rx="0.976934" ry="0.975406" fill="#DFA83E"/>
</svg>
